<svg enable-background="new 0 0 100 100" height="512" viewBox="0 0 100 100" width="512" xmlns="http://www.w3.org/2000/svg"><path d="m80.3489838 21.2170277v56.1711101h-75.3489838v-61.3622207h13.2462463l6.4377232 5.1911106z" fill="#d6b24e"/><path d="m24.68397 16.025917h50.637978v21.189018h-50.637978z" fill="#e6e7e8"/><path d="m80.3465195 77.3842621h-75.3440609l14.6534786-45.5094719h75.3440628z" fill="#ffd25a"/><path d="m30.644651 22.987209h38.716858v1.824305h-38.716858z" fill="#cdcdcd"/><path d="m39.599712 27.429651h20.80674v1.824305h-20.80674z" fill="#cdcdcd"/><circle cx="75.322" cy="71.972" fill="#304651" r="12.002"/><path d="m80.3694458 70.0472641h-3.1218643v-3.1218719c0-1.0627594-.8622437-1.9250031-1.9250107-1.9250031-1.0627594 0-1.9250031.8622437-1.9250031 1.9250031v3.1218719h-3.1231232c-1.062767 0-1.9250031.8622437-1.9250031 1.9250031 0 1.062767.862236 1.9250107 1.9250031 1.9250107h3.1231232v3.1218643c0 1.062767.8622437 1.9250107 1.9250031 1.9250107 1.062767 0 1.9250107-.8622437 1.9250107-1.9250107v-3.1218643h3.1218643c1.062767 0 1.9250107-.8622437 1.9250107-1.9250107 0-1.0627594-.8622437-1.9250031-1.9250107-1.9250031z" fill="#e6e7e8"/></svg>