<?xml version="1.0" encoding="iso-8859-1"?>
<!-- Generator: Adobe Illustrator 21.0.0, SVG Export Plug-In . SVG Version: 6.00 Build 0)  -->
<svg version="1.1" id="Capa_1" xmlns="http://www.w3.org/2000/svg" xmlns:xlink="http://www.w3.org/1999/xlink" x="0px" y="0px"
	 viewBox="0 0 591.146 591.146" style="enable-background:new 0 0 591.146 591.146;" xml:space="preserve">
<g>
	<g>
		<g id="filled_outline">
			<polygon style="fill:#DADDDF;" points="581.293,522.176 581.293,581.291 522.179,581.291 133.008,192.12 192.122,133.005 			"/>
			<polygon style="fill:#995431;" points="9.852,49.26 24.631,64.038 44.336,73.891 128.082,157.636 157.639,128.079 73.893,44.333 
				64.041,24.629 49.262,9.85 			"/>
			<path style="fill:#FDB62F;" d="M192.122,73.891L73.893,192.12c-16.325,0-29.557,13.232-29.557,29.557
				s13.232,29.557,29.557,29.557s29.557-13.232,29.557-29.557L221.68,103.448c16.325,0,29.557-13.232,29.557-29.557
				s-13.232-29.557-29.557-29.557S192.122,57.565,192.122,73.891z"/>
			
				<rect x="342.358" y="84.003" transform="matrix(0.7071 -0.7071 0.7071 0.7071 -145.896 352.2128)" style="fill:#C7CACC;" width="19.705" height="536.43"/>
			<polygon style="fill:#543221;" points="44.336,73.891 51.302,80.856 80.859,51.299 73.893,44.333 69.253,35.043 35.045,69.25 			
				"/>
			
				<rect x="72.704" y="83.744" transform="matrix(0.7071 -0.7071 0.7071 0.7071 -38.766 93.6028)" style="fill:#543221;" width="41.803" height="19.705"/>
			<path style="fill:#C7CACC;" d="M465.951,406.834c-11.261,26.641-25.941,51.706-43.666,74.563l15.301,15.301
				c18.138-22.306,33.331-46.858,45.183-73.046L465.951,406.834z"/>
			<polygon style="fill:#DADDDF;" points="9.852,522.176 9.852,581.291 68.967,581.291 458.138,192.12 399.023,133.005 			"/>
			<polygon style="fill:#995431;" points="581.293,49.26 566.515,64.038 546.81,73.891 463.064,157.636 433.507,128.079 
				517.253,44.333 527.105,24.629 541.884,9.85 			"/>
			<path style="fill:#FDB62F;" d="M399.023,73.891L517.253,192.12c16.326,0,29.557,13.232,29.557,29.557
				s-13.232,29.557-29.557,29.557s-29.557-13.232-29.557-29.557L369.466,103.448c-16.326,0-29.557-13.232-29.557-29.557
				s13.232-29.557,29.557-29.557S399.023,57.565,399.023,73.891z"/>
			
				<rect x="-29.302" y="342.369" transform="matrix(0.7071 -0.7071 0.7071 0.7071 -179.0818 272.1002)" style="fill:#C7CACC;" width="536.43" height="19.705"/>
			<polygon style="fill:#543221;" points="546.81,73.891 539.844,80.856 510.287,51.299 517.253,44.333 521.893,35.043 
				556.101,69.25 			"/>
			
				<rect x="487.689" y="72.694" transform="matrix(0.7071 -0.7071 0.7071 0.7071 79.544 379.2285)" style="fill:#543221;" width="19.705" height="41.803"/>
			<path style="fill:#C7CACC;" d="M125.195,406.834c11.261,26.641,25.941,51.706,43.666,74.563l-15.301,15.301
				c-18.138-22.306-33.331-46.858-45.183-73.046L125.195,406.834z"/>
			<path style="fill:#4398D1;" d="M295.573,581.291L295.573,581.291C175.649,527.329,98.524,408.046,98.524,276.536v-34.582
				c0.03-8.335,6.315-15.311,14.601-16.207c37.479-4.434,70.918-25.626,90.918-57.627l12.71-20.335h157.639l12.71,20.335
				c20,32.001,53.44,53.193,90.918,57.627c8.286,0.897,14.572,7.872,14.601,16.207v34.582
				C492.622,408.046,415.497,527.329,295.573,581.291z"/>
			<path style="fill:#3E8CC7;" d="M478.02,225.746c-20.966-2.542-40.947-10.384-58.041-22.789
				C363.821,337.039,261.848,426.312,170.23,483.092c33.242,42.365,76.248,76.061,125.343,98.199
				c119.924-53.962,197.049-173.245,197.049-304.755v-34.582C492.592,233.618,486.306,226.643,478.02,225.746z"/>
			<path style="fill:#3E8CC7;" d="M295.573,537.477c-96.849-51.036-157.521-151.461-157.639-260.942v-15.252
				c41.341-10.158,77.066-36.099,99.51-72.268l1.153-1.823h113.953l1.123,1.823c22.464,36.168,58.188,62.11,99.539,72.268v15.252
				C453.094,386.016,392.422,486.442,295.573,537.477z"/>
			<rect x="167.491" y="285.718" style="fill:#4398D1;" width="19.705" height="19.705"/>
			<rect x="236.458" y="236.456" style="fill:#4398D1;" width="19.705" height="19.705"/>
			<rect x="334.983" y="236.456" style="fill:#4398D1;" width="19.705" height="19.705"/>
			<rect x="285.72" y="482.767" style="fill:#4398D1;" width="19.705" height="19.705"/>
			<rect x="187.196" y="354.685" style="fill:#4398D1;" width="19.705" height="19.705"/>
			<rect x="226.606" y="423.652" style="fill:#4398D1;" width="19.705" height="19.705"/>
			<rect x="403.95" y="285.718" style="fill:#4398D1;" width="19.705" height="19.705"/>
			<rect x="384.245" y="354.685" style="fill:#4398D1;" width="19.705" height="19.705"/>
			<rect x="344.835" y="423.652" style="fill:#4398D1;" width="19.705" height="19.705"/>
			<path d="M64.888,571.439H19.705v-45.183l95.638-95.638l-13.931-13.931L2.887,515.211C1.035,517.053,0,519.565,0,522.176v59.115
				c0,5.439,4.414,9.852,9.852,9.852h59.115c2.611,0,5.123-1.034,6.966-2.887l78.819-78.819l-13.931-13.931L64.888,571.439z"/>
			<path d="M548.849,2.884c-3.842-3.842-10.089-3.842-13.931,0l-14.779,14.779c-0.749,0.749-1.379,1.616-1.852,2.562l-9.133,18.266
				l-65.795,65.795l-34.71-34.71c-2.394-21.636-21.863-37.232-43.499-34.848c-21.636,2.394-37.232,21.863-34.848,43.498
				c2.03,18.335,16.503,32.818,34.848,34.848l19.931,19.931l-6.089,6.089c-1.419-0.759-2.995-1.153-4.601-1.163H216.753
				c-1.606,0.01-3.182,0.404-4.601,1.163l-6.089-6.089l19.931-19.931c21.636-2.394,37.232-21.863,34.848-43.498
				s-21.863-37.232-43.499-34.848c-18.335,2.03-32.818,16.503-34.848,34.848l-34.71,34.71L81.992,38.491l-9.084-18.266
				c-0.473-0.946-1.103-1.813-1.852-2.562L56.277,2.884c-3.852-3.842-10.079-3.842-13.931,0l-39.41,39.41
				c-3.842,3.852-3.842,10.079,0,13.931l14.779,14.779c0.749,0.749,1.616,1.379,2.562,1.852l18.266,9.133l65.745,65.795
				l-34.71,34.71c-21.636,2.335-37.291,21.764-34.966,43.4c2.158,20.05,19.114,35.242,39.282,35.193
				c5.074-0.02,10.089-1.025,14.779-2.956v18.365c0.118,135.363,79.48,258.114,202.862,313.78c2.571,1.153,5.508,1.153,8.079,0
				c123.372-55.666,202.724-178.398,202.862-313.741v-18.404c4.69,1.931,9.705,2.936,14.779,2.956
				c21.764,0.049,39.449-17.547,39.508-39.311c0.049-20.168-15.133-37.124-35.193-39.282l-34.71-34.71l65.795-65.795l18.266-9.084
				c0.946-0.473,1.813-1.103,2.562-1.852l14.779-14.779c3.842-3.852,3.842-10.079,0-13.931L548.849,2.884z M517.253,58.265
				l15.626,15.626l-20.552,20.552L496.7,78.817L517.253,58.265z M465.557,213.48c-3.882-0.916-7.714-2.049-11.478-3.37l4.059-4.049
				L465.557,213.48z M435.152,201.174c-6.473-3.754-12.552-8.138-18.158-13.094l11.586-11.577l15.616,15.616L435.152,201.174z
				 M414.64,162.563l-11.34,11.35c-2.837-3.517-5.478-7.192-7.882-11.015l-4.769-7.626l8.335-8.325L414.64,162.563z
				 M200.458,155.272l-4.769,7.626c-2.404,3.823-5.044,7.498-7.882,11.015l-11.301-11.35l15.616-15.616L200.458,155.272z
				 M133.008,206.061l4.059,4.049c-3.764,1.32-7.596,2.453-11.478,3.37L133.008,206.061z M155.994,201.135l-9.045-9.054
				l15.616-15.577l11.586,11.577c-5.606,4.956-11.685,9.34-18.158,13.094V201.135z M94.445,78.817L78.819,94.443L58.267,73.891
				l15.626-15.626L94.445,78.817z M23.784,49.26l25.478-25.478l6.68,6.69l5.911,11.921L42.365,61.9l-11.921-5.911L23.784,49.26z
				 M92.751,108.374l15.626-15.626l25.469,25.478l-15.616,15.616L92.751,108.374z M73.893,241.382
				c-10.887,0-19.705-8.818-19.705-19.705s8.818-19.705,19.705-19.705c2.611,0,5.123-1.035,6.966-2.887L199.088,80.856
				c1.852-1.852,2.887-4.355,2.887-6.966c0-10.887,8.818-19.705,19.705-19.705s19.705,8.818,19.705,19.705
				s-8.818,19.705-19.705,19.705c-2.611,0-5.123,1.035-6.966,2.887l-29.557,29.557l-59.115,59.115l-29.557,29.557
				c-1.852,1.842-2.887,4.355-2.887,6.966s-0.522,5.192-1.527,7.596c-0.069,0.108-0.128,0.227-0.177,0.345
				C88.751,236.751,81.696,241.372,73.893,241.382z M482.769,276.536c-0.128,125.983-73.085,240.537-187.196,293.918
				c-114.111-53.38-187.068-167.935-187.196-293.918v-34.582c0.01-0.67,0.138-1.34,0.365-1.97c0.187-0.355,0.325-0.739,0.502-1.103
				c1.025-1.892,2.906-3.163,5.044-3.399c40.454-4.67,76.573-27.518,98.111-62.08l9.852-15.715h146.703l9.852,15.715
				c21.518,34.562,57.607,57.43,98.051,62.129c2.138,0.236,4.02,1.507,5.044,3.399c0.177,0.365,0.315,0.749,0.502,1.103
				c0.227,0.631,0.355,1.301,0.365,1.97C482.769,242.003,482.769,276.536,482.769,276.536z M517.253,201.972
				c10.887-0.02,19.725,8.788,19.734,19.675c0.02,10.887-8.788,19.725-19.675,19.734c-7.823,0.01-14.917-4.601-18.069-11.764
				c-0.049-0.118-0.108-0.236-0.177-0.345c-0.995-2.404-1.517-4.985-1.517-7.596s-1.034-5.123-2.887-6.966l-29.557-29.557
				l-59.115-59.115l-29.557-29.557c-1.842-1.852-4.355-2.887-6.966-2.887c-10.887,0-19.705-8.818-19.705-19.705
				s8.818-19.705,19.705-19.705s19.705,8.818,19.705,19.705c0,2.611,1.035,5.123,2.887,6.966l118.229,118.229
				C512.129,200.928,514.642,201.972,517.253,201.972z M457.301,118.227l25.469-25.478l15.626,15.626l-25.478,25.469
				L457.301,118.227z M560.672,55.94l-11.921,5.911l-19.508-19.488l5.961-11.921l6.68-6.66l25.478,25.478L560.672,55.94z"/>
			
				<rect x="32.93" y="492.616" transform="matrix(0.7071 -0.7071 0.7071 0.7071 -329.3296 209.8652)" width="111.469" height="19.705"/>
			<path d="M489.735,416.686l-13.931,13.931l95.638,95.638v45.183h-45.183l-75.933-75.933l-13.931,13.931l78.819,78.819
				c1.842,1.842,4.355,2.887,6.966,2.887h59.115c5.438,0,9.852-4.414,9.852-9.852v-59.115c0-2.611-1.035-5.123-2.887-6.966
				L489.735,416.686z"/>
			
				<rect x="492.617" y="446.739" transform="matrix(0.7071 -0.7071 0.7071 0.7071 -208.1326 502.4703)" width="19.705" height="111.469"/>
			<path d="M455.557,251.707c-38.858-9.508-72.425-33.882-93.5-67.883l-1.123-1.813c-1.793-2.906-4.966-4.67-8.384-4.67H238.596
				c-3.399,0-6.562,1.754-8.365,4.641l-1.123,1.803c-21.074,34.02-54.651,58.405-93.519,67.923
				c-4.414,1.084-7.508,5.035-7.508,9.577v15.252c-0.167,113.214,62.612,217.138,162.9,269.661c2.877,1.517,6.306,1.517,9.182,0
				c100.288-52.523,163.068-156.447,162.9-269.661v-15.252C463.064,256.742,459.971,252.791,455.557,251.707z M443.359,276.536
				c0.167,104.032-56.523,199.827-147.786,249.759c-91.263-49.932-147.954-145.727-147.786-249.759v-7.705
				c39.646-11.616,73.805-37.094,96.239-71.785h103.086c22.444,34.69,56.602,60.169,96.248,71.785V276.536z"/>
			<rect x="167.491" y="285.718" width="19.705" height="19.705"/>
			<rect x="236.458" y="236.456" width="19.705" height="19.705"/>
			<rect x="334.983" y="236.456" width="19.705" height="19.705"/>
			<rect x="285.72" y="482.767" width="19.705" height="19.705"/>
			<rect x="187.196" y="354.685" width="19.705" height="19.705"/>
			<rect x="226.606" y="423.652" width="19.705" height="19.705"/>
			<rect x="403.95" y="285.718" width="19.705" height="19.705"/>
			<rect x="384.245" y="354.685" width="19.705" height="19.705"/>
			<rect x="344.835" y="423.652" width="19.705" height="19.705"/>
		</g>
	</g>
</g>
<g>
</g>
<g>
</g>
<g>
</g>
<g>
</g>
<g>
</g>
<g>
</g>
<g>
</g>
<g>
</g>
<g>
</g>
<g>
</g>
<g>
</g>
<g>
</g>
<g>
</g>
<g>
</g>
<g>
</g>
</svg>
