<?xml version="1.0" encoding="iso-8859-1"?>
<!-- Generator: Adobe Illustrator 19.0.0, SVG Export Plug-In . SVG Version: 6.00 Build 0)  -->
<svg xmlns="http://www.w3.org/2000/svg" xmlns:xlink="http://www.w3.org/1999/xlink" version="1.1" id="Capa_1" x="0px" y="0px" viewBox="0 0 507.989 507.989" style="enable-background:new 0 0 507.989 507.989;" xml:space="preserve" width="512" height="512">
<g>
	<g>
		<g>
			<rect x="90.55" y="7.5" style="fill:#BFECEF;" width="320" height="384"/>
			<rect x="130.55" y="47.5" style="fill:#5ECFD6;" width="96" height="80"/>
		</g>
		<g>
			<g>
				<polygon style="fill:#7ED9DE;" points="130.55,47.5 130.55,127.5 134.816,127.5 182.842,47.5     "/>
				<polygon style="fill:#9EE2E6;" points="208.961,7.5 206.854,7.5 182.842,47.5 226.55,47.5 226.55,127.5 134.816,127.5       90.55,201.238 90.55,391.5 405.55,391.5 410.55,383.172 410.55,128.518     "/>
				<polygon style="fill:#5ECFD6;" points="226.55,47.5 182.842,47.5 134.816,127.5 226.55,127.5     "/>
			</g>
			<polygon style="fill:#FDFCE7;" points="237.481,500.493 17.993,368.731 215.637,39.5 489.996,204.203 325.293,478.562    "/>
			<polygon style="fill:#FCFAD0;" points="270.421,445.621 325.293,478.562 237.481,500.493    "/>
		</g>
	</g>
	<g>
		<path d="M493.856,197.773l-75.844-45.531c0.024-0.244,0.037-0.492,0.037-0.742V7.5c0-4.142-3.358-7.5-7.5-7.5h-33    c-4.142,0-7.5,3.358-7.5,7.5s3.358,7.5,7.5,7.5h25.5v128.26L335.985,103h34.565c4.142,0,7.5-3.358,7.5-7.5s-3.358-7.5-7.5-7.5    h-58.333c-0.366,0-0.723,0.035-1.075,0.086L282.68,71h87.869c4.142,0,7.5-3.358,7.5-7.5s-3.358-7.5-7.5-7.5h-112    c-0.266,0-0.528,0.015-0.787,0.042L219.497,33.07c-3.503-2.104-8.19-0.929-10.291,2.57L206.589,40H130.55    c-4.142,0-7.5,3.358-7.5,7.5v80c0,4.142,3.358,7.5,7.5,7.5h19.009L98.05,220.802V15h244.833c4.142,0,7.5-3.358,7.5-7.5    s-3.358-7.5-7.5-7.5H90.55c-4.142,0-7.5,3.358-7.5,7.5v238.289L11.563,364.871c-2.132,3.551-0.981,8.159,2.57,10.291    L233.62,506.924c1.684,1.012,3.775,1.322,5.678,0.846l87.812-21.932c1.906-0.476,3.602-1.731,4.613-3.416L381.803,399h28.747    c4.142,0,7.5-3.358,7.5-7.5v-52.879l78.376-130.557C498.558,204.512,497.407,199.905,493.856,197.773z M158.55,120h-20.5V55    h59.534l-39.021,65.001C158.558,120.001,158.554,120,158.55,120z M253.23,488.829l19.761-32.917l32.917,19.761l-5.427,1.355    L253.23,488.829z M403.05,384h-12.242l12.242-20.392V384z M322.723,468.271l-48.441-29.08c-3.552-2.132-8.159-0.981-10.291,2.57    l-29.08,48.442L28.284,366.161L218.206,49.791l261.499,156.982L322.723,468.271z"/>
		<path d="M269.378,136.495l54.872,32.94c1.209,0.726,2.539,1.071,3.853,1.071c2.547,0,5.031-1.298,6.438-3.641    c2.132-3.552,0.981-8.159-2.57-10.291l-54.872-32.94c-3.552-2.132-8.159-0.981-10.291,2.57    C264.677,129.756,265.827,134.363,269.378,136.495z"/>
		<path d="M351.686,185.906l75.449,45.293c3.786,2.272,8.843,0.697,10.681-3.31c1.572-3.427,0.27-7.612-2.96-9.551l-75.449-45.293    c-3.552-2.132-8.159-0.981-10.291,2.57C346.985,179.167,348.135,183.774,351.686,185.906z"/>
		<path d="M196.66,148.826l61.731,37.058c1.209,0.726,2.539,1.071,3.853,1.071c2.547,0,5.031-1.298,6.438-3.641    c2.132-3.551,0.981-8.159-2.57-10.291l-61.731-37.058c-3.552-2.132-8.158-0.981-10.291,2.57    C191.958,142.086,193.109,146.694,196.66,148.826z"/>
		<path d="M410.15,259.493l-116.603-69.999c-3.552-2.132-8.159-0.981-10.291,2.57c-2.132,3.551-0.981,8.159,2.57,10.291    l116.603,69.999c3.786,2.272,8.843,0.697,10.681-3.31C414.683,265.616,413.38,261.432,410.15,259.493z"/>
		<path d="M389.562,293.788L183.793,170.26c-3.552-2.132-8.159-0.982-10.291,2.57c-2.132,3.551-0.981,8.159,2.57,10.291    l205.77,123.527c3.786,2.272,8.843,0.697,10.681-3.31C394.095,299.911,392.792,295.727,389.562,293.788z"/>
		<path d="M368.975,328.083l-157.756-94.704c-3.552-2.132-8.158-0.981-10.291,2.57c-2.132,3.551-0.981,8.159,2.57,10.291    l157.756,94.704c3.786,2.272,8.843,0.697,10.681-3.31C373.507,334.206,372.204,330.021,368.975,328.083z"/>
		<path d="M134.896,251.71l123.462,74.116c1.209,0.726,2.539,1.071,3.853,1.071c2.547,0,5.031-1.298,6.438-3.641    c2.132-3.551,0.981-8.159-2.57-10.291L142.617,238.85c-3.552-2.132-8.159-0.981-10.291,2.57    C130.195,244.971,131.345,249.579,134.896,251.71z"/>
		<path d="M348.387,362.377l-54.872-32.941c-3.551-2.131-8.159-0.981-10.291,2.57c-2.132,3.551-0.981,8.159,2.57,10.291    l54.872,32.941c3.786,2.273,8.843,0.696,10.681-3.31C352.919,368.501,351.617,364.316,348.387,362.377z"/>
		<path d="M114.309,286.005l48.013,28.823c1.208,0.726,2.539,1.071,3.853,1.071c2.547,0,5.031-1.298,6.438-3.641    c2.132-3.551,0.981-8.159-2.57-10.291l-48.013-28.823c-3.551-2.132-8.158-0.981-10.291,2.57    C109.607,279.266,110.758,283.874,114.309,286.005z"/>
		<path d="M327.799,396.672l-130.32-78.234c-3.553-2.132-8.158-0.981-10.291,2.57c-2.132,3.551-0.981,8.159,2.57,10.291    l130.32,78.234c3.786,2.272,8.843,0.697,10.681-3.31C332.331,402.796,331.029,398.611,327.799,396.672z"/>
		<path d="M307.211,430.967L101.442,307.44c-3.553-2.132-8.158-0.981-10.291,2.57c-2.132,3.551-0.981,8.159,2.57,10.291    L299.49,443.828c3.786,2.272,8.843,0.697,10.681-3.31C311.743,437.091,310.441,432.906,307.211,430.967z"/>
		<path d="M163.162,391.146l-82.308-49.411c-3.553-2.132-8.158-0.981-10.291,2.57c-2.132,3.551-0.981,8.159,2.57,10.291    l82.308,49.411c1.209,0.726,2.539,1.071,3.853,1.071c2.547,0,5.031-1.298,6.438-3.641    C167.863,397.885,166.713,393.277,163.162,391.146z"/>
		<path d="M238.61,436.439l-48.013-28.823c-3.552-2.131-8.159-0.981-10.291,2.57s-0.981,8.159,2.57,10.291l48.013,28.823    c3.786,2.272,8.843,0.697,10.681-3.31C243.143,442.563,241.84,438.378,238.61,436.439z"/>
	</g>
</g>















</svg>
