<?xml version="1.0" encoding="iso-8859-1"?>
<!-- Generator: Adobe Illustrator 19.0.0, SVG Export Plug-In . SVG Version: 6.00 Build 0)  -->
<svg version="1.1" id="Layer_1" xmlns="http://www.w3.org/2000/svg" xmlns:xlink="http://www.w3.org/1999/xlink" x="0px" y="0px"
	 viewBox="0 0 370 370" style="enable-background:new 0 0 370 370;" xml:space="preserve">
<g id="XMLID_682_">
	<polygon id="XMLID_72_" style="fill:#78B9EB;" points="15,320 15,0 215,0 275,60 275,320 	"/>
	<polygon id="XMLID_683_" style="fill:#5A8BB0;" points="275,173.75 15,320 275,320 	"/>
	<rect id="XMLID_709_" x="75" y="120" style="fill:#DEDDE0;" width="140" height="20"/>
	<rect id="XMLID_710_" x="75" y="160" style="fill:#DEDDE0;" width="140" height="20"/>
	<rect id="XMLID_711_" x="75" y="80" style="fill:#FFFFFF;" width="70" height="20"/>
	<rect id="XMLID_712_" x="75" y="120" style="fill:#FFFFFF;" width="70" height="20"/>
	<rect id="XMLID_713_" x="75" y="160" style="fill:#FFFFFF;" width="70" height="20"/>
	<g id="XMLID_714_">
		<circle id="XMLID_64_" style="fill:#EEEEEF;" cx="275" cy="290" r="80"/>
		<path id="XMLID_63_" style="fill:#DEDDE0;" d="M275,210c44.183,0,80,35.817,80,80s-35.817,80-80,80"/>
	</g>
	<polygon id="XMLID_715_" style="fill:#1E2E3B;" points="215,0 275,60 215,60 	"/>
	<rect id="XMLID_716_" x="260" y="290" style="fill:#78B9EB;" width="30" height="50"/>
	<rect id="XMLID_717_" x="275" y="290" style="fill:#5A8BB0;" width="15" height="50"/>
	<circle id="XMLID_718_" style="fill:#78B9EB;" cx="275" cy="260" r="20"/>
	<path id="XMLID_719_" style="fill:#5A8BB0;" d="M275,240c11.046,0,20,8.954,20,20c0,11.046-8.954,20-20,20"/>
</g>
<g>
</g>
<g>
</g>
<g>
</g>
<g>
</g>
<g>
</g>
<g>
</g>
<g>
</g>
<g>
</g>
<g>
</g>
<g>
</g>
<g>
</g>
<g>
</g>
<g>
</g>
<g>
</g>
<g>
</g>
</svg>
